<?xml version="1.0" encoding="iso-8859-1"?>
<!-- Uploaded to: SVG Repo, www.svgrepo.com, Generator: SVG Repo Mixer Tools -->
<!DOCTYPE svg PUBLIC "-//W3C//DTD SVG 1.1//EN" "http://www.w3.org/Graphics/SVG/1.1/DTD/svg11.dtd">
<svg fill="#000000" height="100px" width="100px" version="1.1" id="Capa_1" xmlns="http://www.w3.org/2000/svg" xmlns:xlink="http://www.w3.org/1999/xlink" 
	 viewBox="0 0 281.487 281.487" xml:space="preserve">
<g>
	<circle cx="176.203" cy="120.769" r="8.654"/>
	<circle cx="105.284" cy="120.769" r="8.654"/>
	<path d="M280.644,146.088c-1.224-2.261-3.587-3.669-6.157-3.669h-69.988c4.607-6.007,7.354-13.512,7.354-21.65
		c0-19.657-15.993-35.649-35.65-35.649c-5.258,0-10.248,1.153-14.745,3.205c3.061-8.551,6.049-16.704,7.578-20.331
		c1.502-3.563-0.168-7.668-3.73-9.17c-3.56-1.5-7.667,0.168-9.17,3.73c-1.729,4.1-5.079,13.266-8.392,22.539V42.607
		c0-3.866-3.134-7-7-7s-7,3.134-7,7v43.071c-3.258-9.445-6.615-18.91-8.392-23.123c-1.503-3.563-5.611-5.23-9.17-3.73
		c-3.563,1.502-5.232,5.607-3.73,9.17c1.526,3.619,4.418,11.734,7.36,20.232c-4.44-1.99-9.354-3.106-14.527-3.106
		c-19.657,0-35.65,15.992-35.65,35.649c0,8.138,2.747,15.643,7.354,21.65H7c-2.57,0-4.934,1.408-6.157,3.669
		c-1.223,2.261-1.108,5.011,0.298,7.161c23.359,35.729,58.107,56.22,95.336,56.22c0.361,0,0.723-0.012,1.085-0.016
		c8.377,16.406,22.765,29.534,40.816,36.015c0.765,0.274,1.564,0.412,2.365,0.412s1.601-0.138,2.365-0.412
		c18.052-6.481,32.439-19.609,40.816-36.015c0.362,0.004,0.724,0.016,1.085,0.016c37.229,0,71.977-20.491,95.336-56.22
		C281.752,151.099,281.866,148.349,280.644,146.088z M197.853,120.769c0,11.938-9.712,21.65-21.65,21.65
		c-11.938,0-21.649-9.712-21.649-21.65c0-11.938,9.712-21.649,21.649-21.649C188.141,99.119,197.853,108.831,197.853,120.769z
		 M105.284,99.119c11.938,0,21.649,9.712,21.649,21.649c0,11.938-9.712,21.65-21.649,21.65c-11.938,0-21.65-9.712-21.65-21.65
		C83.634,108.831,93.346,99.119,105.284,99.119z M20.737,156.419h71.364c-1.733,6.322-2.624,12.853-2.624,19.524
		c0,6.66,0.909,13.174,2.614,19.405C65.196,193.983,39.896,180.111,20.737,156.419z M140.743,231.386
		c-22.394-9.131-37.267-31.097-37.267-55.442c0-6.739,1.117-13.296,3.287-19.562c17.74-0.729,32.178-14.478,33.979-31.926
		c1.801,17.449,16.241,31.199,33.984,31.926c2.169,6.273,3.283,12.846,3.283,19.562C178.01,200.289,163.137,222.255,140.743,231.386
		z M189.396,195.348c1.706-6.231,2.614-12.745,2.614-19.405c0-6.65-0.881-13.192-2.615-19.524h71.355
		C241.591,180.111,216.291,193.983,189.396,195.348z"/>
	<path d="M149.631,159.012H132.05c-1.662,0-2.495,2.01-1.319,3.185l8.791,8.791c0.729,0.729,1.91,0.729,2.639,0l8.791-8.791
		C152.126,161.022,151.293,159.012,149.631,159.012z"/>
</g>
</svg>
